<?xml version="1.0" encoding="utf-8"?>
<!-- Generator: Adobe Illustrator 18.1.1, SVG Export Plug-In . SVG Version: 6.00 Build 0)  -->
<!DOCTYPE svg PUBLIC "-//W3C//DTD SVG 1.1//EN" "http://www.w3.org/Graphics/SVG/1.1/DTD/svg11.dtd">
<svg version="1.1" id="_x31_0" xmlns="http://www.w3.org/2000/svg" xmlns:xlink="http://www.w3.org/1999/xlink" x="0px" y="0px"
	 viewBox="0 0 512 512" style="enable-background:new 0 0 512 512;" xml:space="preserve">
<style type="text/css">
	.st0{fill:#FFFFFF;}
</style>
<g>
	<path class="st0" d="M352.454,444.385c-0.496,0.462-0.805,1.016-1.148,1.551c-0.195,0.238-0.434,0.481-0.622,0.707
		c0.047-0.035,0.11-0.055,0.161-0.086c-0.028,0.055-0.09,0.098-0.114,0.153c0.031-0.024,0.074-0.027,0.11-0.051
		c-0.02,0.043-0.051,0.074-0.066,0.118c0.394-0.266,0.808-0.485,1.242-0.664c0.016-0.004,0.028-0.012,0.035-0.016
		c3.997-1.617,9.566,0.363,13.27,4.813c0.004,0.007,0.012,0.015,0.016,0.023c0.793,0.953,1.492,2.023,2.078,3.191
		c0.043,0.086,0.082,0.168,0.122,0.254c0.863,1.797,1.449,3.824,1.633,6.05c0.004,0.02,0,0.039,0.004,0.062
		c0.058,0.746,0.074,1.516,0.039,2.305c-0.278,6.394-4.305,9.809-9.836,10.41c-0.07,0.011-0.137,0.027-0.207,0.031
		c-5.598,0.535-12.695-1.778-19.047-6.809c-6.64-5.262-37.437-34.527-56.25-34.527c-16.699,0-25.289,12.426-27.027,15.25
		c-0.195,0.298-0.313,0.477-0.367,0.555c-0.203-0.379-8.746-15.805-27.355-15.805c-18.813,0-49.61,29.266-56.25,34.527
		c-6.352,5.035-13.45,7.344-19.047,6.809c-0.07-0.004-0.133-0.02-0.199-0.027c-5.535-0.602-9.562-4.016-9.84-10.414
		c-0.039-0.789-0.019-1.558,0.039-2.305c0-0.019,0-0.042,0-0.066c0.184-2.222,0.77-4.246,1.633-6.042
		c0.043-0.09,0.082-0.172,0.125-0.258c0.586-1.168,1.282-2.234,2.066-3.183c0.012-0.012,0.02-0.024,0.028-0.031
		c3.277-3.938,8.015-5.938,11.828-5.226c0.027,0.003,0.054,0.007,0.078,0.011c0.371,0.074,0.727,0.191,1.082,0.317
		c0.363,0.148,0.691,0.351,1.023,0.546c0.11,0.106,0.313,0.129,0.387,0.278c-0.02-0.043-0.063-0.074-0.078-0.114
		c0.046,0.035,0.11,0.047,0.152,0.082c-0.011-0.031-0.038-0.062-0.054-0.094c0.043,0.023,0.09,0.039,0.129,0.066
		c-3.191-7.766-21.863-9.313-28.527,5.558c-6.683,14.965-2.086,47.011,25.664,56.98c17.711,6.363,48.039,0.622,70.438-8.886
		c0.289-0.121,0.574-0.242,0.859-0.363c1.504-0.653,2.976-1.317,4.398-1.996c0.394-0.192,0.77-0.383,1.156-0.574
		c1.043-0.512,2.058-1.035,3.051-1.566c0.453-0.238,0.91-0.477,1.351-0.722c1.149-0.637,2.246-1.286,3.305-1.938
		c0.453-0.278,0.894-0.558,1.328-0.84c0.992-0.637,1.95-1.282,2.844-1.934c0.316-0.226,0.609-0.457,0.914-0.687
		c0.797-0.602,1.543-1.203,2.246-1.813c0.27-0.23,0.55-0.465,0.805-0.699c0.785-0.711,1.496-1.426,2.141-2.137
		c0.242-0.27,0.457-0.535,0.683-0.805c0.438-0.527,0.832-1.054,1.187-1.578c0.118-0.176,0.27-0.352,0.391-0.524l0.07-0.058
		c3.82,6.211,13.769,12.707,26.238,18.05c0.008,0.004,0.02,0.008,0.027,0.012c22.438,9.61,53.024,15.457,70.844,9.058
		c27.75-9.969,32.347-42.015,25.66-56.98C373.399,439.162,358.094,438.885,352.454,444.385z"/>
	<path class="st0" d="M396.321,332.566c-1.301-0.29-1.953-0.438-3.254-0.727c-1.688-0.382-41.25-9.25-68.582-9.668
		c-26.223-0.398-43.375,8.418-56.586,17.356c-2.16-0.215-6.234-0.559-11.41-0.559c-5.172,0-9.242,0.344-11.402,0.559
		c-13.172-8.938-30.363-17.754-56.586-17.352c-27.29,0.414-66.894,9.282-68.543,9.664c-1.316,0.29-1.976,0.438-3.293,0.727
		c-0.012,1.32-0.015,1.98-0.023,3.297c-0.157,19.418,0.633,20.187,1.808,21.316c1.165,0.481,1.746,0.722,2.91,1.207
		c1.535,0.453,7.145,2.878,8.504,7.594c0.187,0.715,0.282,1.07,0.473,1.782c2.598,9.82,9.465,35.75,38.27,41.308
		c8.426,1.625,16.617,2.402,24.335,2.293c15.898-0.23,29.363-4.214,36.946-11.019c8.902-7.988,15.328-22.977,19.148-31.91
		c0.711-1.671,1.34-3.098,1.848-4.175c0.703-1.496,2.023-3.258,5.606-3.258c3.633,0,4.906,1.758,5.609,3.258
		c0.508,1.078,1.149,2.511,1.895,4.218c3.843,8.828,10.199,23.879,19.101,31.867c7.586,6.805,21.047,10.785,36.989,11.019
		c7.718,0.11,15.867-0.668,24.297-2.293c28.843-5.558,35.71-31.488,38.312-41.308c0.187-0.711,0.282-1.066,0.469-1.782
		c1.32-4.718,6.926-7.141,8.461-7.594c1.164-0.485,1.746-0.726,2.91-1.207c1.179-1.129,2.011-1.894,1.812-21.316
		C396.337,334.546,396.329,333.886,396.321,332.566z M380.082,346.194c-1.652-0.047-2.969-1.418-2.926-3.043
		c0.043-1.625,1.438-2.926,3.09-2.879c1.657,0.047,2.973,1.418,2.926,3.047C383.13,344.944,381.735,346.241,380.082,346.194z
		 M325.63,395.546c-35.042-0.84-39.511-13.84-43.488-25.418c0-0.035,0-0.051,0-0.082c-0.289-0.797-0.554-1.554-0.832-2.301
		c-2.465-6.68-2.141-12.449,0.817-16.726c5.254-7.594,19.32-12.082,40.71-12.641c0.562-0.023,0.84-0.035,1.402-0.062
		c2.508-0.086,5.602-0.16,9.039-0.102c20.406,0.352,31.32,5.789,32.37,15.95c1.446,13.922-1.133,24.468-7.488,31.331
		c-6.418,6.93-17.117,10.297-31.774,10.063C326.083,395.554,325.934,395.55,325.63,395.546z M132.9,346.194
		c-1.695,0.046-3.043-1.25-3.09-2.875c-0.047-1.629,1.226-3,2.926-3.047c1.652-0.046,3.004,1.254,3.05,2.879
		C135.83,344.776,134.552,346.151,132.9,346.194z M147.377,354.163c1.07-10.157,11.968-15.598,32.37-15.95
		c3.438-0.062,6.535,0.016,9,0.102c0.574,0.027,0.863,0.039,1.442,0.062c21.351,0.558,35.465,4.992,40.714,12.641
		c2.942,4.281,3.102,9.965,0.77,16.726c-0.254,0.738-0.539,1.504-0.789,2.297c-0.016,0.035-0.023,0.051-0.039,0.086
		c-3.977,11.578-8.445,24.578-43.492,25.418c-0.285,0.004-0.426,0.008-0.711,0.012c-7.328,0.117-13.714-0.649-18.98-2.329
		c-5.305-1.691-9.61-4.262-12.836-7.734C148.45,378.631,145.915,368.089,147.377,354.163z"/>
	<path class="st0" d="M413.18,200.714c-0.226-2.954-3.098-4.973-5.965-4.203c-11.578,3.031-39.07,14.312-51.503,18.445
		c-2.211,0.668-4.063,1.133-5.36,1.282l18.371-181.3c0.856-8.492-4.484-16.387-12.695-18.719C338.985,11.336,295.126,0,256.013,0
		c-39.117,0-82.972,11.336-100.015,16.218c-8.238,2.332-13.55,10.227-12.699,18.719l5.27,52.054l12.691,129.39
		c-7.582-1.493-42.926-16.356-56.449-19.902c-2.84-0.738-5.711,1.25-5.965,4.206c-5.91,69.848,98.113,96.153,157.194,96.121
		C315.38,296.807,418.746,270.647,413.18,200.714z M336.314,213.808l-1.332,13.098c-8.438,4.629-22.301,9.484-47.438,11.699
		c-8.977,0.824-19.375,1.281-31.504,1.281c-12.102,0-22.523-0.457-31.5-1.281c-25.254-2.242-39.144-7.129-47.55-11.758
		l-1.309-13.066c25.141,2.441,52.379,3.722,80.332,3.722c26.125,0,51.539-1.16,75.281-3.301
		C332.958,214.062,334.661,213.956,336.314,213.808z M172.502,40.648c12.839-3.406,34.027-8.266,54.906-9.828
		c2.754-0.199,4.402,3.012,2.641,5.141c-20.195,24.402-36.102,55.816-44.738,91.637c0,0.058-0.027,0.14-0.027,0.199
		c-0.851,3.437-5.824,3.152-6.191-0.367L170.17,44C170.002,42.469,170.994,41.019,172.502,40.648z"/>
</g>
</svg>
